<svg xmlns="http://www.w3.org/2000/svg" width="304.724" height="191.339"><path d="M322.446-24.61c54.306 94.059 22.078 214.332-71.98 268.638-94.06 54.305-214.334 22.078-268.64-71.982C-72.477 77.986-40.25-42.287 53.809-96.592c94.06-54.305 214.333-22.078 268.638 71.981z" style="marker:none" color="#000" fill="#d8f6fc" overflow="visible"/><path style="marker:none" d="M311.543-18.315c50.814 88.013 20.659 200.555-67.355 251.37-88.013 50.814-200.555 20.659-251.37-67.355C-57.996 77.687-27.84-34.855 60.173-85.67c88.013-50.814 200.555-20.659 251.37 67.355z" color="#000" fill="#fff" overflow="visible"/><path d="M221.567 248.003c-80.015 34.157-181.55 2.106-227.246-72.023C-35.21 130.107-43.771 70.857-26.61 18.875c.444 10.1-4.666 28.267 5.92 39.468C-20.714 71.96-14.817 78.16-5.4 86.065c-1.908 19.969 26.143 23.26 25.283 43.427 10.087 7.825 19.28 9.286 26.511-1.31 23.726-9.114 20.958 24.406 39.602 26.343 17.865 9.28 26.058-24.728 44.235-9.357 10.945 6.49 4.182 25.14-7.694 13.676-18.188-8.54-30.94 13.011-8.261 18.238 18.738 5.287 22.26-20.257 40.734-12.079 17.124-1.92 21.52-23.965 41.51-16.683 10.285-5.629 15.361-24.612 31.318-14.365 11.523 12.027-23.056 12.724-27.765 24.48-4.167 12.718-37.598 5.564-28.448 22.337 22.357 13.795 27.125-24.935 50.2-15.608 9.108-9.018 20.233-18.608 32.783-10.811 17.51-2.843 14.624-35.167-3.941-17.653-12.722 15.19-22.203-3.44-8.953-12.112 13.132-8.633 28.128 4.094 38.284-11.037 9.91.3 18.426 9.914 22.71-5.258 1.055-14.202 2.532-24.565 9.664-36.293-2.282-13.386-.05-39.194 17.616-26.783 7.178-11.475-4.057-26.95-3.468-36.037 29.656 74.587 3.415 167-61.867 214.043-13.293 9.959-27.836 18.216-43.086 24.78zm49.954-75.887c-5.393-5.794-8.438 13.288-.234.33zm-52.51 19.88c-12.674-6.722-20.253 13.47 0 0zm91.897-55.736c.754-15.8-7.41 13.665 0 0zM179.79 210.07c-8.078-.309 5.822 2.51 0 0zm67.8-40.27c-8.199-10.683-23.964 16.362-4.885 5.686 2.267-1.027 5.108-2.715 4.886-5.685zm41.171-25.872c14.574-16.774-17.06-9.236-12.374 2.887 3.801 2.62 10.706 2.104 12.374-2.887zm33.671-40.68c6.522-8.985-4.45-19.61-6.281-5.352-6.74 9.384.498 19.667 6.281 5.353zm-164.378 91.589c11.869-11.795-38.446-8.584-13.46 1.16 4.179 1.066 10.104 2.642 13.46-1.16zm-37.886 10.186c-13.413-8.142-9.184 5.569 0 0zm-8.563-4.567c-2.475-3.45-.615 5.038 0 0zM328.466 71.612c8.125-8.352-4.444-32.278-8.338-11.915-6.377 6.554 1.712 28.489 8.338 11.915zM93.686 181.853c-4.97-9.828-34.767-14.718-16.587.713 2.995 1.759 21.037 8.93 16.587-.713zm-36.87 5.839c-12.066-11.264-6.84 5.602 0 0zm11.465-29.91c-1.232-13.578-41.163-27.636-25.064-5.5 4.87 8.162 18.035 15.696 25.064 5.5zM31.296 159.5c-5.489-6.741-23.662-17.633-11.5-1.31 2.075 3.294 16.56 12.478 11.5 1.31zM8.768 133.404c-2.617-8.615-23.076-19.226-12.877-2.373.925 3.905 16.336 11.774 12.877 2.373zm-23.1-30.982c-7.885-19.108-13.638 1.217-2.244 7.585 6.38 3.217 4.428-4.9 2.244-7.585zm-12.575-22.07c1.753-8.587-10.308-21.282-7.095-5.684-.131 3.227 4.469 13.595 7.095 5.684zm308.55 22.411c-12.786-11.519 16.933-33.8 17.282-13.245-8.128-1.425-14.671 18.086-17.282 13.245zM268.5 91.597c-8.157 7.09-24.707 7.703-10.607-4.116 2.293-2.144 18.033-.315 10.607 4.116zm-35.787 9.158c-8.231 7.516-21.396 6.377-7.264-2.486 3.78-2.611 19.423-.91 7.264 2.486zm57.339-40.019c-8.958-10.892 20.36-14.54 4.625-3.914-2.348 1.002-.742 8.841-4.625 3.914zM194.134 115.6c-7.01 6.14-18.57 3.934-5.496-1.807 2.85-4.412 16.073-.909 5.496 1.807zm-42.516 21.893c-26.657 6.366 19.736-23.543 10.063-3.52-3.247 1.468-6.694 2.392-10.063 3.52zm166.688-103.46c-12.672-4.59 4.005-34.328 5.897-15.172-7.548 2.618.362 12.18-5.897 15.171zm-23.912-10.188c-.572-11.363 9.368.853 0 0zm-193.28 107.4c-4.493-6.52-32.717.414-17.646-11.839 6.504-3.024 24.822 2.601 17.647 11.84zM320.778-1.58c-4.487-12.008-1.505 13.732-5.72-3.124.778-9.512-18.918-41.07-6.1-20.764 3.278 3.773 20.895 38.523 11.82 23.888zM40.217 123.078c-6.185-7.414-35.518-18.924-11.39-23.687 7.78-.269 23.698 21.272 11.39 23.687zm26.867-24.45c-16.95-1.748 2.113-9.75 1.859 1.183l-.67-.113zM17.865 94.9c-4.169-7.32-28.72-22.045-6.863-21.538 6.623 3.333 13.774 15.732 6.863 21.538zM-.025 68.902c-8.694-5.519-13.642-35.269-.575-17.2 1.563 5.05 4.603 12.843.575 17.2zm26.43-17.262c-.998-3.979 2.674 4.04 0 0zm-5.795-7.718c-.46-5.985 4.204 3.517 0 0zm-35.647-1.568c-2.267-6.746-4.596-37.208 3.755-18.042-.47 5.255 3.167 16.133-3.755 18.042zm24.064-19.91c-3.648-12.951 4.835 8.614 0 0zm-31.614-6.062c1.565-4.578 2.41-12.9-1.44-3.43 1.105-9.879 14.429-36.682 8.79-11.52-1.132 5.347-2.32 11.8-7.35 14.95z" fill="#d8f6fc"/></svg>