<svg xmlns="http://www.w3.org/2000/svg" width="190" height="100"><g fill="#4e9a06" color="#000"><path style="marker:none" d="M38.433 61.511c8.215 7.835 19.385 12.495 30.732 12.822 11.102.319 21.886-3.32 32.848-5.106A99.417 99.417 0 01148 72.622c-13.91-6.74-29.702-9.54-45.08-7.992-11.137 1.121-22.026 4.462-33.216 4.723a61.016 61.016 0 01-31.271-7.842z" overflow="visible"/><path style="marker:none" d="M109.729 66.14V30.34l18.111 4.853-16.56 4.437v26.82z" overflow="visible"/></g><g font-weight="400" word-spacing="0"><g aria-label="CGS" style="line-height:0%;-inkscape-font-specification:'Dutch801 SWM';text-align:start" font-family="Dutch801 SWM" letter-spacing="10.241" font-size="34.858"><path d="M57.226 51.327q-1.286 1.813-2.87 2.685-1.583.872-3.603.872-3.615 0-5.807-2.203-2.18-2.204-2.18-5.819 0-3.592 2.283-5.887 2.284-2.307 5.853-2.307 1.366 0 2.789.448 1.435.436 1.56.436.334 0 .517-.195.184-.195.207-.574h.493l.448 5.027h-.54q-.654-2.112-1.95-3.202-1.286-1.102-3.157-1.102-2.605 0-4.2 1.997-1.595 1.997-1.595 5.268 0 3.167 1.607 5.175 1.606 1.997 4.188 1.997 1.63 0 2.927-.7 1.297-.711 2.628-2.33zM78.144 38.783h.505l.241 4.797h-.585q-.815-2.203-1.905-3.11-1.09-.918-2.87-.918-2.513 0-4.05 1.997-1.527 1.985-1.527 5.245 0 3.282 1.56 5.267 1.573 1.974 4.11 1.974.94 0 1.79-.321.849-.321 1.377-.872v-4.235q0-1.366-.333-1.641-.333-.287-1.779-.356v-.47h6.278v.458q-1.056.023-1.4.345-.345.31-.345 1.526v4.487q-1.411.964-2.892 1.446-1.48.482-3.052.482-3.558 0-5.75-2.18t-2.192-5.715q0-3.684 2.226-6.003 2.238-2.318 5.761-2.318 1.435 0 2.766.482 1.343.482 1.377.482.253 0 .414-.195.16-.206.275-.654zM89.066 49.846h.494q.838 1.997 2.169 3.122 1.343 1.113 2.858 1.113 1.32 0 2.192-.792.883-.792.883-1.962 0-.872-.597-1.618-.585-.758-1.801-1.435l-2.583-1.458q-1.675-.918-2.41-1.893-.734-.976-.734-2.238 0-1.733 1.331-2.87 1.343-1.147 3.409-1.147 1.101 0 2.226.344 1.125.333 1.354.333.276 0 .425-.16.15-.173.184-.517h.424l.54 4.694h-.494q-.746-1.974-1.87-2.938-1.114-.964-2.663-.964-1.136 0-1.894.677-.746.666-.746 1.676 0 .803.528 1.457.54.643 1.825 1.366l2.87 1.595q1.778.999 2.455 1.951.689.953.689 2.33 0 1.985-1.435 3.179-1.423 1.193-3.822 1.193-1.147 0-2.352-.31-1.194-.31-1.32-.31-.333 0-.54.15-.195.15-.229.413l-.425.012z" style="line-height:125%;-inkscape-font-specification:'Dutch801 SWM';text-align:start"/></g></g><g aria-label="ČLENSKÁ KARTA" style="line-height:0%;-inkscape-font-specification:Gentium;text-align:start" font-weight="400" font-family="Gentium" letter-spacing="0" word-spacing="0" font-size="8.659"><path d="M46.698 31.735q-.27.288-.52.486-.245.195-.477.313-.229.119-.453.17-.22.05-.44.05-.393 0-.773-.178-.376-.177-.677-.511-.3-.334-.486-.816-.182-.486-.182-1.1 0-.676.203-1.225.207-.55.558-.94.351-.388.816-.6.465-.21.985-.21.457 0 .8.122.346.122.566.3.026.021-.013.085-.038.063-.105.143-.064.08-.14.161-.072.08-.122.131l-.148-.025q-.216-.2-.512-.326-.296-.127-.68-.127-.144 0-.318.055-.169.05-.342.165-.174.114-.334.3-.16.182-.288.444-.122.262-.198.61-.072.342-.072.781 0 .563.16.985.165.423.419.706.258.28.57.423.318.14.618.14.228 0 .596-.157.368-.156.833-.545.021.008.042.038.026.025.047.055l.038.06q.017.025.03.037zm-1.48-4.989h-.452l-1.116-1.298.05-.072q.022-.03.039-.05.02-.022.042-.038l.06-.038 1.162.892 1.142-.892q.071.038.101.076.03.038.08.122zM51.028 31.596q-.034.367-.089.638-.05.27-.084.393h-3.607v-.182q.288-.059.448-.126.165-.072.165-.131v-4.444q0-.05-.156-.127-.153-.076-.457-.135V27.3h1.903v.182q-.288.059-.453.13-.16.073-.16.132v4.19q0 .076.033.135.038.055.127.097.089.038.241.06.152.02.385.02h.605q.194 0 .325-.02.135-.022.237-.093.101-.077.182-.22.084-.144.173-.393l.182.076zM55.192 31.596q-.033.363-.088.638-.051.27-.085.393H51.37v-.182q.288-.059.448-.126.165-.072.165-.131v-4.444q0-.05-.156-.127-.152-.076-.457-.135V27.3h3.408l.14.106q-.008.11-.026.24-.017.132-.042.263-.026.13-.055.25-.026.118-.05.198h-.191q-.008-.194-.038-.326-.026-.13-.068-.207-.042-.08-.105-.11-.06-.033-.136-.033H52.66v1.839h1.712l.11.118q-.034.06-.085.127-.046.063-.101.127-.05.059-.106.114-.05.05-.097.085-.063-.064-.14-.106-.071-.042-.169-.072-.093-.03-.224-.042-.126-.013-.304-.013h-.596v2.118q0 .064.03.114.029.047.122.085.093.034.262.055.17.017.448.017h.546q.194 0 .33-.021.139-.021.245-.093.105-.076.19-.22.089-.144.178-.393l.181.076zM55.666 32.627v-.182q.313-.038.46-.118.153-.08.153-.14V27.77q-.144-.13-.296-.194t-.317-.093V27.3h.896q.064 0 .102.013.042.008.08.042.042.034.093.102.05.063.131.173l2.778 3.83v-3.716q0-.05-.14-.131-.135-.085-.473-.131V27.3h1.733v.182q-.304.042-.46.122-.153.08-.153.14v5.01q-.211-.025-.334-.084-.118-.06-.169-.132l-2.964-4.11v3.76q0 .05.14.13.144.08.473.127v.182zM64.815 31.033q0 .19-.05.39-.051.198-.157.393-.101.19-.258.363-.152.17-.363.296-.207.127-.474.203-.262.076-.58.076-.139 0-.303-.03-.165-.03-.339-.084-.173-.05-.346-.127-.17-.076-.318-.173-.03-.017-.046-.144-.013-.127-.013-.296 0-.173.013-.35.013-.178.046-.293l.174.021q.097.25.24.432.149.182.326.304.178.119.38.178.208.055.424.055.19 0 .38-.076.195-.08.351-.216.157-.135.254-.313.097-.182.097-.385 0-.258-.114-.444t-.3-.33q-.186-.143-.423-.257-.237-.114-.486-.229-.245-.114-.482-.24-.237-.127-.423-.297-.186-.169-.3-.389-.114-.224-.114-.532 0-.131.038-.284.038-.152.122-.304.085-.152.216-.292.135-.143.321-.25.19-.109.436-.172.245-.064.554-.064.19 0 .38.03.195.03.36.08.169.05.304.123.135.072.211.156.03.025 0 .102-.025.071-.084.16-.055.085-.127.17-.068.084-.118.13l-.153-.025q-.118-.14-.25-.233-.126-.093-.261-.148-.131-.059-.262-.08-.131-.025-.25-.025-.237 0-.406.067-.169.068-.279.178-.11.106-.165.237-.05.127-.05.245 0 .199.114.355.114.152.3.283.19.127.427.241.241.115.49.241.254.123.49.267.242.144.428.33.19.186.304.427.114.236.114.55zM70.16 32.47q-.25.081-.504.149-.25.067-.452.067-.123 0-.22-.038-.093-.038-.177-.143l-2.102-2.596 1.721-2.05q.097-.115.123-.183.025-.067-.017-.105-.043-.038-.148-.055-.106-.021-.27-.034V27.3h1.775v.182q-.135.017-.241.034-.106.017-.19.046-.085.026-.157.068-.067.042-.13.114l-1.836 2.046 2.025 2.3q.077.085.161.131.089.047.186.068.102.017.207.017.106-.004.216-.017l.03.182zm-4.753.157v-.182q.288-.059.448-.126.165-.072.165-.131v-4.444q0-.05-.156-.127-.152-.076-.457-.135V27.3h1.903v.182q-.288.059-.453.13-.16.073-.16.132v4.444q0 .05.152.126.152.072.46.131v.182zM71.94 30.365h1.467l-.745-2.173zm1.543 2.262v-.182q.33-.02.46-.084.132-.068.077-.203l-.482-1.408h-1.725l-.47 1.408q-.038.131.114.19.157.06.504.097v.182H70.2v-.182q.288-.05.453-.105.17-.06.216-.182l1.573-4.76q.097-.107.24-.191.144-.089.254-.148l1.776 5.099q.038.118.156.19.123.068.398.097v.182zm-1.307-5.78q-.072-.029-.105-.067l-.085-.123 1.636-1.34.114.068q.072.038.148.084.076.043.14.085.063.042.097.076l.038.19zM82.226 32.47q-.25.081-.503.149-.25.067-.452.067-.123 0-.22-.038-.093-.038-.178-.143l-2.101-2.596 1.72-2.05q.098-.115.123-.183.026-.067-.017-.105-.042-.038-.148-.055-.105-.021-.27-.034V27.3h1.776v.182q-.136.017-.241.034-.106.017-.19.046-.085.026-.157.068-.068.042-.131.114l-1.835 2.046 2.025 2.3q.076.085.16.131.09.047.187.068.101.017.207.017.106-.004.216-.017l.03.182zm-4.752.157v-.182q.287-.059.448-.126.165-.072.165-.131v-4.444q0-.05-.156-.127-.153-.076-.457-.135V27.3h1.902v.182q-.287.059-.452.13-.16.073-.16.132v4.444q0 .05.152.126.152.072.46.131v.182zM84.006 30.365h1.467l-.744-2.173zm1.543 2.262v-.182q.33-.02.461-.084.131-.068.076-.203l-.482-1.408H83.88l-.469 1.408q-.038.131.114.19.157.06.503.097v.182h-1.759v-.182q.288-.05.453-.105.169-.06.215-.182l1.573-4.76q.097-.107.241-.191.144-.089.254-.148l1.776 5.099q.038.118.156.19.123.068.398.097v.182zM89.249 27.528q-.16 0-.326.013v2.165q.114.02.199.025.085.004.178.004.701 0 1.086-.292.385-.296.385-.858 0-.232-.093-.427-.089-.194-.275-.334-.186-.14-.473-.216-.288-.08-.681-.08zm-1.615 5.1v-.183q.287-.059.448-.126.165-.072.165-.131V27.6q-.148.021-.305.047l-.308.042-.038-.262q.198-.05.401-.093.203-.047.423-.08.22-.038.461-.06.245-.02.524-.02.508 0 .884.097.38.097.63.27.254.173.376.41.127.233.127.503 0 .326-.106.588-.101.258-.287.457-.186.198-.44.334-.254.13-.558.198l1.4 2.009q.063.089.135.143.076.055.165.085.093.025.203.03.114.004.258-.008l.046.181q-.279.093-.533.157-.25.06-.414.06-.123 0-.241-.068-.114-.072-.173-.165L89.439 30.1h-.068q-.11 0-.22-.008-.11-.013-.228-.038v2.135q0 .05.153.127.152.072.46.13v.182zM93.41 32.627v-.182q.194-.038.325-.08.135-.042.215-.08.08-.042.114-.076.038-.038.038-.068v-4.46h-1.264q-.063 0-.118.025-.05.021-.106.097-.05.076-.118.224-.068.148-.16.394l-.183-.08q.021-.25.055-.533.038-.284.085-.508h4.27l.127.106q-.008.216-.042.473-.034.254-.085.52h-.19q-.038-.177-.072-.312-.03-.136-.072-.225-.038-.093-.097-.135-.06-.046-.152-.046h-1.201v4.46q0 .055.152.14.152.084.541.165v.181zM98.11 30.365h1.468l-.744-2.173zm1.544 2.262v-.182q.33-.02.46-.084.132-.068.077-.203l-.482-1.408h-1.725l-.47 1.408q-.038.131.115.19.156.06.503.097v.182h-1.76v-.182q.288-.05.453-.105.17-.06.216-.182l1.573-4.76q.097-.107.24-.191.144-.089.254-.148l1.776 5.099q.038.118.157.19.122.068.397.097v.182z" style="line-height:1.25"/></g></svg>